<svg xmlns="http://www.w3.org/2000/svg" xmlns:xlink="http://www.w3.org/1999/xlink" viewBox="0 0 66 65" fill="#fff" fill-rule="evenodd" stroke="#000" stroke-linecap="round" stroke-linejoin="round"><use xlink:href="#A" x=".5" y=".5"/><symbol id="A" overflow="visible"><g stroke="none" fill-rule="nonzero"><path d="M0 17.655V64h64V17.655L52.966 0h-41.93z" fill="#a98258"/><path d="M64 17.655L52.966 0h-41.93L0 17.655z" fill="#daae86"/><path d="M38.62 64v-6.62l-2.207 2.207L32 55.172l-4.414 4.414-2.207-2.207V64z" fill="#d8b18b"/><path d="M22.07 33.103h19.86V50.76H22.07z" fill="#e8d5b2"/><path d="M33.103 45.24h-6.62c-.61 0-1.103.494-1.103 1.103s.494 1.103 1.103 1.103h6.62c.61 0 1.103-.494 1.103-1.103s-.494-1.103-1.103-1.103zm4.414 0h-1.103c-.61 0-1.103.494-1.103 1.103s.494 1.103 1.103 1.103h1.103c.61 0 1.103-.494 1.103-1.103s-.494-1.103-1.103-1.103zm-6.62-6.62h6.62c.61 0 1.103-.494 1.103-1.103s-.494-1.103-1.103-1.103h-6.62c-.61 0-1.103.494-1.103 1.103s.494 1.103 1.103 1.103zm6.62 2.207H35.3c-.61 0-1.103.494-1.103 1.103s.494 1.103 1.103 1.103h2.207c.61 0 1.103-.494 1.103-1.103s-.494-1.103-1.103-1.103zm-11.034 2.207H28.7c.61 0 1.103-.494 1.103-1.103s-.494-1.103-1.103-1.103h-2.207c-.61 0-1.103.494-1.103 1.103s.494 1.103 1.103 1.103zm0-4.414h1.103c.61 0 1.103-.494 1.103-1.103s-.494-1.103-1.103-1.103h-1.103c-.61 0-1.103.494-1.103 1.103s.494 1.103 1.103 1.103zm4.745 2.538c-.205.206-.323.482-.33.772 0 .298.1.574.33.772a1.16 1.16 0 0 0 .772.331 1.16 1.16 0 0 0 .783-.32 1.16 1.16 0 0 0 .32-.783 1.16 1.16 0 0 0-.32-.783 1.16 1.16 0 0 0-1.567 0z" fill="#d4c3a5"/><path d="M25.38 0h13.24v17.655H25.38z" fill="#f4d5bd"/><path d="M25.38 17.655v7.724l2.207-2.207L32 27.586l4.414-4.414 2.207 2.207v-7.724z" fill="#d8b18b"/></g></symbol></svg>